<svg xmlns="http://www.w3.org/2000/svg" width="36" height="37.333" viewBox="0 0 36 37.333"><defs><clipPath id="A"><path d="M13.158.004c-.46.132-.805.355-.988.66-.567.945-.58 3.095-.6 5.582l-.005.7c-.018 2.51-.033 4.672.857 5.447.345.3.835.398 1.5.29 2.526-.4 2.743-1.996 2.94-3.405l.02-.156.116-.794.703-6.3c0-.4-.035-.725-.1-.898-.107-.267-.418-.524-.85-.738A13.3 13.3 0 0 0 13.5 0l-.343.004zM9.18.72l-.763.29c-.168.314-.297.808-.38 1.455-.25 2.026-.033 5.062.536 5.098.528.03.867-2.63.935-4.648C9.556 1.5 9.412.924 9.18.72zM5.643 2.567C2.226 5.06 0 9.138 0 13.743 0 21.335 6.044 27.49 13.5 27.49c7.436 0 13.468-6.123 13.5-13.688v-.12c-.014-3.364-1.216-6.443-3.2-8.825-.072.036-.204.16-.443.527-.246.367-2.37 3.724-2.37 7.572 0 .755 1.06 1.935 1.996 2.97.7.78 1.364 1.514 1.608 2.092.312.745.094 1.266-.25 1.442-.312.157-.78.042-1.108-.557-.54-.97-.712-1.152-1.498-1.8-.774-.65-2.003-1.302-2.003-.456 0 .456.684 1.49 1.024 2.215.345.733-.028 1.264-.74 1.264-1.402 0-2.333-1.835-2.333-2.47s.3-.726.3-1.465c0-.745-1.538-1.71-2.986-1.71-1.458 0-2.275.317-2.58 1.22l-.096.295c-.345 1.032-.6 1.78-1.02 2.563-.228.414-.58.7-.883.952-.398.318-.604.61-.647.828s-.06.623.618 1.562c.678.934.773 1.64.434 2.003-.123.13-.332.212-.602.212-.476 0-1.137-.26-1.82-.97-1.06-1.116-.458-2.175-.458-2.64s-.194-.73-.83-1.36-.86-1.18-.935-3.37a7.94 7.94 0 0 0-.394-2.353c-.15-.505-.288-.98-.296-1.664-.012-.76.11-1.25.255-1.814.14-.522.3-1.12.386-2.12.166-1.678.1-3.073-.252-4.53l-.017-.096c-.057-.237-.125-.526-.218-.63zm16.147.33a13.52 13.52 0 0 0-1.475-1.019c-.168-.03-.316-.01-.388.112-.685 1.2-.942 4.92-.28 5.246.864.413 2.41-3.24 2.284-3.885-.034-.186-.08-.332-.14-.454z" clip-rule="evenodd"/></clipPath><clipPath id="B"><path d="M-134-2163h375V103h-375z"/></clipPath><clipPath id="C"><path d="M0 0h27v28H0z"/></clipPath><clipPath id="D"><path d="M0 0h27v28H0z"/></clipPath></defs><g clip-path="url(#A)" transform="matrix(1.333333 0 0 -1.333333 0 37.333333)"><g clip-path="url(#B)"><g clip-path="url(#C)"><g clip-path="url(#D)"><path d="M-5 32.49h37V-5H-5z" fill="#f14635"/></g></g></g></g></svg>
